<svg width="192" height="192" viewBox="0 0 512 512" fill="none" xmlns="http://www.w3.org/2000/svg">
  <!-- Background circle -->
  <circle cx="256" cy="256" r="240" fill="#1e40af" stroke="#ffffff" stroke-width="8"/>
  
  <!-- AR symbol -->
  <g transform="translate(256, 256)">
    <!-- Letter A -->
    <path d="M-80 80 L-40 -80 L-20 -80 L20 80 L0 80 L-10 40 L-50 40 L-60 80 Z M-45 20 L-15 20 L-30 -40 Z" fill="white"/>
    
    <!-- Letter R -->
    <path d="M20 80 L20 -80 L60 -80 Q80 -80 90 -60 Q100 -40 100 -20 Q100 0 90 10 Q85 15 80 15 L100 80 L80 80 L65 20 L40 20 L40 80 Z M40 -60 L40 0 L60 0 Q70 0 75 -10 Q80 -20 80 -30 Q80 -40 75 -50 Q70 -60 60 -60 Z" fill="white"/>
  </g>
  
  <!-- Tech elements -->
  <circle cx="150" cy="150" r="8" fill="#60a5fa" opacity="0.8"/>
  <circle cx="362" cy="150" r="8" fill="#60a5fa" opacity="0.8"/>
  <circle cx="150" cy="362" r="8" fill="#60a5fa" opacity="0.8"/>
  <circle cx="362" cy="362" r="8" fill="#60a5fa" opacity="0.8"/>
  
  <!-- Connection lines -->
  <line x1="150" y1="150" x2="362" y2="150" stroke="#60a5fa" stroke-width="2" opacity="0.6"/>
  <line x1="150" y1="362" x2="362" y2="362" stroke="#60a5fa" stroke-width="2" opacity="0.6"/>
  <line x1="150" y1="150" x2="150" y2="362" stroke="#60a5fa" stroke-width="2" opacity="0.6"/>
  <line x1="362" y1="150" x2="362" y2="362" stroke="#60a5fa" stroke-width="2" opacity="0.6"/>
</svg>