<svg width="32" height="32" viewBox="0 0 32 32" fill="none" xmlns="http://www.w3.org/2000/svg">
  <defs>
    <linearGradient id="gradient" x1="0%" y1="0%" x2="100%" y2="100%">
      <stop offset="0%" style="stop-color:#3B82F6;stop-opacity:1" />
      <stop offset="100%" style="stop-color:#8B5CF6;stop-opacity:1" />
    </linearGradient>
  </defs>
  
  <!-- Background circle -->
  <circle cx="16" cy="16" r="15" fill="url(#gradient)" stroke="#ffffff" stroke-width="1"/>
  
  <!-- Letter F -->
  <path d="M8 9h8v2.5h-5.5v3h4.5v2.5h-4.5v5h-2.5V9z" fill="white" font-weight="bold"/>
  
  <!-- Letter C -->
  <path d="M18 12c1.5 0 2.8 0.6 3.8 1.6l1.8-1.8c-1.5-1.5-3.5-2.3-5.6-2.3-4.4 0-8 3.6-8 8s3.6 8 8 8c2.1 0 4.1-0.8 5.6-2.3l-1.8-1.8c-1 1-2.3 1.6-3.8 1.6-2.8 0-5-2.2-5-5s2.2-5 5-5z" fill="white" font-weight="bold"/>
</svg>