<svg width="48" height="48" viewBox="0 0 48 48" fill="none" xmlns="http://www.w3.org/2000/svg">
  <defs>
    <linearGradient id="rocketGradient" x1="0%" y1="0%" x2="100%" y2="100%">
      <stop offset="0%" style="stop-color:#4F46E5;stop-opacity:1" />
      <stop offset="100%" style="stop-color:#7C3AED;stop-opacity:1" />
    </linearGradient>
    <linearGradient id="flameGradient" x1="0%" y1="0%" x2="100%" y2="100%">
      <stop offset="0%" style="stop-color:#F59E0B;stop-opacity:1" />
      <stop offset="100%" style="stop-color:#EF4444;stop-opacity:1" />
    </linearGradient>
  </defs>
  
  <!-- 火箭主体 -->
  <path d="M24 4C26.2 4 28 5.8 28 8V28C28 30.2 26.2 32 24 32C21.8 32 20 30.2 20 28V8C20 5.8 21.8 4 24 4Z" fill="url(#rocketGradient)"/>
  
  <!-- 火箭头部 -->
  <path d="M24 4L28 12H20L24 4Z" fill="#6366F1"/>
  
  <!-- 火箭窗口 -->
  <circle cx="24" cy="18" r="3" fill="#E0E7FF" stroke="#6366F1" stroke-width="1"/>
  
  <!-- 左翼 -->
  <path d="M20 24L16 28L18 32L22 28Z" fill="url(#rocketGradient)"/>
  
  <!-- 右翼 -->
  <path d="M28 24L32 28L30 32L26 28Z" fill="url(#rocketGradient)"/>
  
  <!-- 火焰 -->
  <path d="M22 32L24 44L26 32C26 32 25 36 24 36C23 36 22 32 22 32Z" fill="url(#flameGradient)"/>
  <path d="M20 30L22 40L24 30C24 30 23 34 22 34C21 34 20 30 20 30Z" fill="url(#flameGradient)" opacity="0.8"/>
  <path d="M28 30L26 40L24 30C24 30 25 34 26 34C27 34 28 30 28 30Z" fill="url(#flameGradient)" opacity="0.8"/>
  
  <!-- 细节装饰 -->
  <rect x="22" y="20" width="4" height="2" rx="1" fill="#E0E7FF"/>
  <rect x="22" y="24" width="4" height="2" rx="1" fill="#E0E7FF"/>
</svg> 